# xmcd
#
# Track frame offsets: 
#        150
#        28052
#        50065
#        89550
#        111530
#        126870
#        153837
#
# Disc length: 2370 seconds
#
# Revision: 5
# Processed by: cddbd v1.5.2PL0 Copyright (c) Steve Scherf et al.
# Submitted via: ExactAudioCopyFreeDBPlugin 1.0
#
DISCID=5f094007
DTITLE=Various Artist - Blues Organ Grooves (Rounder EasyDisc)
DYEAR=1998
DGENRE=Blues
TTITLE0=Ron Levy's Wild Kingdom - C.C. Rider
TTITLE1=David Maxwell - Heart Attack
TTITLE2=Tony Z - Tone-Cool
TTITLE3=Johnny Heartsman - Let Me Love You, Baby
TTITLE4=Lynn August - Jaywalkin'
TTITLE5=Davell Crawford - The Cat
TTITLE6=Guitar Shorty and Otis Grand - Down Thru' the Years (ft Tony A
TTITLE6=shton)
EXTD=
EXTT0=
EXTT1=
EXTT2=
EXTT3=
EXTT4=
EXTT5=
EXTT6=
PLAYORDER=
